<svg width="230" height="40" viewBox="0 0 230 50" fill="none" xmlns="http://www.w3.org/2000/svg">
<path fill-rule="evenodd" clip-rule="evenodd" d="M15.7243 28.0916C19.4579 10.1197 33.6873 3.35883 33.6873 3.35883C33.6873 3.35883 11.3455 11.0651 3.88647 13.6011C3.3414 13.7855 2.82565 14.0719 2.3898 14.4902C0.837514 15.979 0.837514 18.3938 2.3898 19.8826C2.5607 20.0466 2.74576 20.1844 2.93689 20.3116L15.7243 28.0916Z" fill="#00C2FF"/>
<path fill-rule="evenodd" clip-rule="evenodd" d="M36.8423 47.2965L50.5006 5.4384L50.4907 5.42553C50.9256 4.06206 50.6559 2.4908 49.6562 1.4014C47.9266 -0.483514 45.7874 0.54948 45.7838 0.551459C25.3358 8.89952 21.2581 37.9708 31.0087 48.5936C32.4024 50.1125 34.6614 50.1125 36.0551 48.5936C36.4065 48.2117 36.6679 47.7684 36.8423 47.2965Z" fill="#0DAD36"/>
<path d="M66.9646 2.72951H63.2856V25.1436H66.9646V2.72951Z" fill="white"/>
<path d="M73.7949 16.8581C73.7949 13.0245 75.8353 11.1386 78.185 11.1386C80.5346 11.1386 82.575 13.0245 82.575 16.8581C82.575 20.6917 80.5346 22.5466 78.185 22.5466C75.8353 22.5466 73.7949 20.6917 73.7949 16.8581ZM78.185 8.1398C74.135 8.1398 69.9922 10.8604 69.9922 16.8581C69.9922 22.8867 74.135 25.5455 78.185 25.5455C82.2349 25.5455 86.3777 22.8867 86.3777 16.8581C86.3777 10.8604 82.2349 8.1398 78.185 8.1398Z" fill="white"/>
<path d="M96.6002 8.1398C91.6228 8.1398 88.4384 11.9115 88.4384 16.8581C88.4384 21.8046 91.6228 25.5455 96.4457 25.5455C100.001 25.5455 103.433 23.3504 104.175 19.455H100.588C100.094 21.681 98.3315 22.4848 96.5075 22.4848C94.3434 22.4848 92.2411 20.7844 92.2411 16.8272C92.2411 12.9009 94.2815 11.2005 96.6002 11.2005C98.6098 11.2005 100.125 12.4371 100.465 14.1993H104.051C103.402 10.5203 100.248 8.1398 96.6002 8.1398Z" fill="white"/>
<path d="M117.177 18.5894C117.177 21.4337 115.569 22.794 112.849 22.794C110.994 22.794 109.788 21.9283 109.788 20.4753C109.788 18.5894 111.921 17.8165 117.177 17.3218V18.5894ZM112.045 25.5455C114.518 25.5455 116.435 24.7107 117.517 22.8867C117.61 24.0306 117.703 24.4325 117.826 25.1436H121.196C120.856 23.7524 120.701 21.5573 120.701 19.455C120.701 17.9402 120.763 15.9615 120.763 15.1577C120.856 9.84017 117.733 8.01614 113.745 8.01614C109.726 8.01614 106.913 10.3657 106.666 13.7356H110.283C110.375 11.726 111.767 10.7367 113.622 10.7367C115.477 10.7367 117.084 11.6024 117.084 14.4467V14.7558C111.025 15.405 105.893 16.3944 105.893 20.568C105.893 23.5978 108.428 25.5455 112.045 25.5455Z" fill="white"/>
<path d="M128.163 2.72951H124.484V25.1436H128.163V2.72951Z" fill="white"/>
<path d="M141.392 8.54171C141.114 8.51079 140.712 8.47987 140.434 8.47987C138.424 8.51079 136.817 9.62376 135.92 11.4787V8.51079H132.303V25.1436H135.982V16.4253C135.982 13.0864 137.311 12.1589 139.63 12.1589C140.187 12.1589 140.774 12.1898 141.392 12.2516V8.54171Z" fill="white"/>
<path d="M158.378 17.8783C158.718 12.3135 155.503 8.1398 150.402 8.1398C145.672 8.1398 142.24 11.6951 142.24 16.7035C142.24 21.4955 145.301 25.5455 150.649 25.5455C154.916 25.5455 157.451 22.8249 158.193 20.1661H154.576C153.926 21.7428 152.442 22.4848 150.495 22.4848C148.392 22.4848 146.228 20.9699 145.981 17.8783H158.378ZM150.402 11.015C152.566 11.015 154.545 12.5917 154.637 15.1886H145.981C146.321 12.0661 148.671 11.015 150.402 11.015Z" fill="white"/>
<path d="M165.087 8.51079H161.408V25.1436H165.087V16.3016C165.087 13.3028 166.107 11.1386 168.951 11.1386C171.795 11.1386 172.104 13.3337 172.104 15.5905V25.1436H175.783V14.694C175.783 10.7367 174.145 8.1398 170.126 8.1398C167.776 8.1398 166.045 9.09819 165.087 10.8295V8.51079Z" fill="white"/>
<path d="M180.139 8.51079H177.665V11.1696H180.139V20.7844C180.139 24.1852 180.85 25.1436 184.405 25.1436H187.126V22.3302H185.796C184.219 22.3302 183.818 21.9283 183.818 20.2279V11.1696H187.156V8.51079H183.818V4.12073H180.139V8.51079Z" fill="white"/>
<path d="M190.838 25.1436V23.1254H188.82V25.1436H190.838Z" fill="white"/>
<path d="M199.879 21.6117C199.523 23.0809 198.484 23.6448 197.208 23.6448C195.664 23.6448 194.403 22.2795 194.403 19.7123C194.403 17.2192 195.664 15.8836 197.282 15.8836C198.469 15.8836 199.478 16.3733 199.879 17.8721H201.897C201.541 15.6314 199.819 14.1919 197.297 14.1919C194.166 14.1919 192.207 16.314 192.207 19.7123C192.207 23.1551 194.032 25.3365 197.237 25.3365C199.805 25.3365 201.615 23.7932 201.897 21.6117H199.879Z" fill="white"/>
<path d="M206.016 19.7568C206.016 17.234 207.411 15.8836 209.088 15.8836C210.765 15.8836 212.16 17.234 212.16 19.7568C212.16 22.2944 210.765 23.6448 209.088 23.6448C207.411 23.6448 206.016 22.2944 206.016 19.7568ZM214.356 19.7568C214.356 16.4179 212.293 14.1919 209.088 14.1919C205.882 14.1919 203.82 16.4179 203.82 19.7568C203.82 23.0957 205.882 25.3365 209.088 25.3365C212.293 25.3365 214.356 23.0957 214.356 19.7568Z" fill="white"/>
<path d="M223.486 25.1436L226.127 17.056V25.1436H228.101V14.3848H224.984L222.447 22.7692L219.835 14.3848H216.748V25.1436H218.722V17.056L221.378 25.1436H223.486Z" fill="white"/>
<g opacity="0.6">
<path d="M63.2856 35.506V47.2705H64.7871V43.0465C65.3316 43.987 66.2556 44.5975 67.6911 44.5975C69.7371 44.5975 71.4861 42.931 71.4861 39.9775C71.4861 37.0735 69.7371 35.3575 67.6911 35.3575C66.2556 35.3575 65.3316 35.968 64.7871 36.9085V35.506H63.2856ZM64.7211 39.9775C64.7211 37.6345 65.9751 36.6445 67.3116 36.6445C68.8461 36.6445 69.8526 37.849 69.8526 39.9775C69.8526 42.106 68.8461 43.3105 67.3116 43.3105C65.9751 43.3105 64.7211 42.3205 64.7211 39.9775Z" fill="white"/>
<path d="M78.8513 40.6705C78.8513 42.766 77.5148 43.4095 76.1123 43.4095C75.0398 43.4095 74.3963 42.8485 74.3963 42.007C74.3963 40.786 76.1288 40.3735 78.8513 40.1095V40.6705ZM75.7823 44.5975C77.3663 44.5975 78.2738 44.086 78.8183 43.162C78.8348 43.69 78.8843 44.053 78.9338 44.383H80.4518C80.2703 43.5415 80.2043 42.535 80.2208 41.0335L80.2373 38.9875C80.2538 36.4795 79.1648 35.3245 76.7063 35.3245C74.9903 35.3245 73.2743 36.397 73.1423 38.311H74.6933C74.7593 37.2055 75.4688 36.5455 76.7228 36.5455C77.8448 36.5455 78.7358 37.0735 78.7358 38.707V38.9215C75.1058 39.3175 72.7298 39.9445 72.7298 42.04C72.7298 43.6735 74.1158 44.5975 75.7823 44.5975Z" fill="white"/>
<path d="M89.9491 44.383V35.506H88.4476V39.202H84.0586V35.506H82.5571V44.383H84.0586V40.5055H88.4476V44.383H89.9491Z" fill="white"/>
<path d="M100.238 40.4395C100.419 37.618 98.8189 35.3575 96.0964 35.3575C93.6709 35.3575 91.7899 37.1395 91.7899 39.961C91.7899 42.5845 93.3409 44.5975 96.1459 44.5975C98.3074 44.5975 99.7264 43.327 100.122 41.809H98.5714C98.1919 42.6835 97.4659 43.2775 96.1459 43.2775C94.8424 43.2775 93.4564 42.3535 93.4069 40.4395H100.238ZM96.0964 36.6445C97.6969 36.6445 98.6044 37.8985 98.6539 39.1525H93.4234C93.5554 37.3705 94.7764 36.6445 96.0964 36.6445Z" fill="white"/>
<path d="M109.922 40.4395C110.103 37.618 108.503 35.3575 105.78 35.3575C103.355 35.3575 101.474 37.1395 101.474 39.961C101.474 42.5845 103.025 44.5975 105.83 44.5975C107.991 44.5975 109.41 43.327 109.806 41.809H108.255C107.876 42.6835 107.15 43.2775 105.83 43.2775C104.526 43.2775 103.14 42.3535 103.091 40.4395H109.922ZM105.78 36.6445C107.381 36.6445 108.288 37.8985 108.338 39.1525H103.107C103.239 37.3705 104.46 36.6445 105.78 36.6445Z" fill="white"/>
<path d="M122.6 44.383L125.9 33.955V44.383H127.583V32.4205H124.761L121.709 42.3865L118.656 32.4205H115.835V44.383H117.518V33.955L120.818 44.383H122.6Z" fill="white"/>
<path d="M135.12 35.506L132.925 42.3535L130.665 35.506H128.998L132.199 44.383L132.133 44.5645C131.737 45.9505 131.259 46.0165 130.269 46.0165H129.658V47.2705H130.434C132.43 47.2705 132.859 46.6765 133.519 44.7625L136.687 35.506H135.12Z" fill="white"/>
<path d="M142.294 35.473C142.113 35.4565 141.997 35.4565 141.849 35.4565C140.677 35.506 139.786 36.0505 139.341 37.057V35.506H137.872V44.383H139.374V39.73C139.374 37.7665 140.067 37.0075 141.453 37.0075C141.7 37.0075 141.981 37.024 142.294 37.0735V35.473Z" fill="white"/>
<path d="M151.414 40.4395C151.595 37.618 149.995 35.3575 147.272 35.3575C144.847 35.3575 142.966 37.1395 142.966 39.961C142.966 42.5845 144.517 44.5975 147.322 44.5975C149.483 44.5975 150.902 43.327 151.298 41.809H149.747C149.368 42.6835 148.642 43.2775 147.322 43.2775C146.018 43.2775 144.632 42.3535 144.583 40.4395H151.414ZM147.272 36.6445C148.873 36.6445 149.78 37.8985 149.83 39.1525H144.599C144.731 37.3705 145.952 36.6445 147.272 36.6445Z" fill="white"/>
<path d="M154.665 35.506H153.164V44.383H154.665V39.565C154.665 37.651 155.556 36.661 157.008 36.661C158.724 36.661 158.955 37.849 158.955 39.2185V44.383H160.457V38.773C160.457 36.7435 159.681 35.3575 157.536 35.3575C156.035 35.3575 155.177 36.001 154.665 36.8425V35.506Z" fill="white"/>
<path d="M163.132 35.506H161.729V36.7105H163.132V42.1555C163.132 44.0035 163.528 44.383 165.227 44.383H166.316V43.129H165.557C164.699 43.129 164.633 42.898 164.633 41.974V36.7105H166.316V35.506H164.633V33.2785H163.132V35.506Z" fill="white"/>
<path d="M173.662 40.6705C173.662 42.766 172.325 43.4095 170.923 43.4095C169.85 43.4095 169.207 42.8485 169.207 42.007C169.207 40.786 170.939 40.3735 173.662 40.1095V40.6705ZM170.593 44.5975C172.177 44.5975 173.084 44.086 173.629 43.162C173.645 43.69 173.695 44.053 173.744 44.383H175.262C175.081 43.5415 175.015 42.535 175.031 41.0335L175.048 38.9875C175.064 36.4795 173.975 35.3245 171.517 35.3245C169.801 35.3245 168.085 36.397 167.953 38.311H169.504C169.57 37.2055 170.279 36.5455 171.533 36.5455C172.655 36.5455 173.546 37.0735 173.546 38.707V38.9215C169.916 39.3175 167.54 39.9445 167.54 42.04C167.54 43.6735 168.926 44.5975 170.593 44.5975Z" fill="white"/>
<path d="M180.965 35.3575C178.341 35.3575 176.675 37.321 176.675 39.961C176.675 42.667 178.259 44.5975 180.816 44.5975C182.895 44.5975 184.463 43.162 184.776 41.4955H183.225C183.011 42.4195 182.136 43.2775 180.866 43.2775C179.546 43.2775 178.308 42.1885 178.308 39.9445C178.308 37.717 179.546 36.6775 180.866 36.6775C182.037 36.6775 182.945 37.42 183.159 38.476H184.677C184.463 36.958 183.143 35.3575 180.965 35.3575Z" fill="white"/>
<path d="M192.063 40.6705C192.063 42.766 190.727 43.4095 189.324 43.4095C188.252 43.4095 187.608 42.8485 187.608 42.007C187.608 40.786 189.341 40.3735 192.063 40.1095V40.6705ZM188.994 44.5975C190.578 44.5975 191.486 44.086 192.03 43.162C192.047 43.69 192.096 44.053 192.146 44.383H193.664C193.482 43.5415 193.416 42.535 193.433 41.0335L193.449 38.9875C193.466 36.4795 192.377 35.3245 189.918 35.3245C188.202 35.3245 186.486 36.397 186.354 38.311H187.905C187.971 37.2055 188.681 36.5455 189.935 36.5455C191.057 36.5455 191.948 37.0735 191.948 38.707V38.9215C188.318 39.3175 185.942 39.9445 185.942 42.04C185.942 43.6735 187.328 44.5975 188.994 44.5975Z" fill="white"/>
<path d="M200.109 35.473C199.927 35.4565 199.812 35.4565 199.663 35.4565C198.492 35.506 197.601 36.0505 197.155 37.057V35.506H195.687V44.383H197.188V39.73C197.188 37.7665 197.881 37.0075 199.267 37.0075C199.515 37.0075 199.795 37.024 200.109 37.0735V35.473Z" fill="white"/>
</g>
</svg>